M48
;Layer_Color=6321
;FILE_FORMAT=4:4
METRIC
;TYPE=PLATED
T1F00S00C0.7110
T2F00S00C1.0160
T3F00S00C1.5000
T4F00S00C3.0000
%
T01
X00813440Y00673570
X00808840Y00702870
X00810640Y00723470
X00912840
X00725440Y00711570
X00725840Y00682470
X00733840Y00667570
X00755240Y00652270
X00657540Y00670070
X00660640Y00752670
X00764540Y00780670
X00700640Y00817470
T02
X00954540Y00610870
Y00636270
Y00661670
Y00687070
Y00712470
Y00737870
Y00763270
Y00788670
X00574540
Y00763270
Y00737870
Y00712470
Y00687070
Y00661670
Y00636270
Y00610870
T03
X00634540Y00869770
X00714540
X00814540
X00894540
T04
X00944540Y00519770
X00584540
Y00879770
X00944540
M30
