G04 Layer_Color=8150272*
%FSAX44Y44*%
%MOMM*%
G71*
G01*
G75*
%ADD51O,1.9812X1.6002*%
%ADD52R,1.9812X1.6002*%
%ADD53C,3.3032*%
%ADD54C,2.2032*%
%ADD55C,1.4732*%
D51*
X00954540Y00737870D02*
D03*
Y00610870D02*
D03*
Y00636270D02*
D03*
Y00661670D02*
D03*
Y00687070D02*
D03*
Y00763270D02*
D03*
Y00712470D02*
D03*
X00574540Y00737870D02*
D03*
Y00610870D02*
D03*
Y00636270D02*
D03*
Y00661670D02*
D03*
Y00687070D02*
D03*
Y00763270D02*
D03*
Y00712470D02*
D03*
D52*
X00954540Y00788670D02*
D03*
X00574540D02*
D03*
D53*
X00584540Y00879770D02*
D03*
X00944540D02*
D03*
Y00519770D02*
D03*
X00584540D02*
D03*
D54*
X00894540Y00869770D02*
D03*
X00814540D02*
D03*
X00714540D02*
D03*
X00634540D02*
D03*
D55*
X00660640Y00752670D02*
D03*
X00810640Y00723470D02*
D03*
X00808840Y00702870D02*
D03*
X00700640Y00817470D02*
D03*
X00764540Y00780670D02*
D03*
X00657540Y00670070D02*
D03*
X00733840Y00667570D02*
D03*
X00725840Y00682470D02*
D03*
X00725440Y00711570D02*
D03*
X00813440Y00673570D02*
D03*
X00755240Y00652270D02*
D03*
X00912840Y00723470D02*
D03*
M02*
