G04 Layer_Color=15132400*
%FSAX44Y44*%
%MOMM*%
G71*
G01*
G75*
%ADD24C,0.2540*%
%ADD30C,0.3810*%
%ADD31C,0.2500*%
%ADD32C,0.2000*%
G36*
X00581640Y00844670D02*
X00576940Y00844670D01*
Y00813470D01*
X00568640D01*
Y00844670D01*
X00564440D01*
X00573615Y00859045D01*
X00581640Y00844670D01*
D02*
G37*
G36*
X00961740D02*
X00957040Y00844670D01*
Y00813470D01*
X00948740D01*
Y00844670D01*
X00944540D01*
X00953715Y00859045D01*
X00961740Y00844670D01*
D02*
G37*
D24*
X00679196Y00805271D02*
Y00795274D01*
X00685861D01*
X00689193D02*
X00692525D01*
X00690859D01*
Y00805271D01*
X00689193Y00803605D01*
X00673034Y00582059D02*
X00674709Y00583716D01*
X00674727Y00587048D01*
X00673071Y00588724D01*
X00666406Y00588761D01*
X00664731Y00587104D01*
X00664712Y00583772D01*
X00666369Y00582096D01*
X00664685Y00578773D02*
X00674681Y00578718D01*
X00674653Y00573720D01*
X00672978Y00572063D01*
X00669646Y00572081D01*
X00667989Y00573757D01*
X00668017Y00578755D01*
X00667998Y00575423D02*
X00664648Y00572109D01*
X00674589Y00562057D02*
X00674626Y00568721D01*
X00664629Y00568777D01*
X00664592Y00562112D01*
X00669627Y00568749D02*
X00669609Y00565417D01*
X00674533Y00552060D02*
X00674570Y00558725D01*
X00669572Y00558752D01*
X00669553Y00555420D01*
X00669572Y00558752D01*
X00664574Y00558780D01*
X00699405Y00836801D02*
X00697738Y00838467D01*
X00694406D01*
X00692740Y00836801D01*
Y00830136D01*
X00694406Y00828470D01*
X00697738D01*
X00699405Y00830136D01*
X00709401Y00836801D02*
X00707735Y00838467D01*
X00704403D01*
X00702737Y00836801D01*
Y00835135D01*
X00704403Y00833468D01*
X00707735D01*
X00709401Y00831802D01*
Y00830136D01*
X00707735Y00828470D01*
X00704403D01*
X00702737Y00830136D01*
X00712734Y00838467D02*
X00719398D01*
X00716066D01*
Y00828470D01*
X00727729Y00838467D02*
X00724397D01*
X00722730Y00836801D01*
Y00830136D01*
X00724397Y00828470D01*
X00727729D01*
X00729395Y00830136D01*
Y00836801D01*
X00727729Y00838467D01*
X00732727Y00828470D02*
Y00838467D01*
X00737726D01*
X00739392Y00836801D01*
Y00833468D01*
X00737726Y00831802D01*
X00732727D01*
X00736059D02*
X00739392Y00828470D01*
X00710805Y00811201D02*
X00709138Y00812867D01*
X00705806D01*
X00704140Y00811201D01*
Y00804536D01*
X00705806Y00802870D01*
X00709138D01*
X00710805Y00804536D01*
X00714137Y00812867D02*
Y00802870D01*
X00719135D01*
X00720801Y00804536D01*
Y00806202D01*
X00719135Y00807868D01*
X00714137D01*
X00719135D01*
X00720801Y00809535D01*
Y00811201D01*
X00719135Y00812867D01*
X00714137D01*
X00724134D02*
Y00811201D01*
X00727466Y00807868D01*
X00730798Y00811201D01*
Y00812867D01*
X00727466Y00807868D02*
Y00802870D01*
X00734130D02*
Y00812867D01*
X00739129D01*
X00740795Y00811201D01*
Y00807868D01*
X00739129Y00806202D01*
X00734130D01*
X00647662Y00693321D02*
X00649305Y00695010D01*
X00649259Y00698342D01*
X00647570Y00699985D01*
X00640906Y00699893D01*
X00639263Y00698204D01*
X00639309Y00694872D01*
X00640998Y00693229D01*
X00649373Y00690012D02*
X00649419Y00686680D01*
X00649396Y00688346D01*
X00639400Y00688208D01*
X00639378Y00689874D01*
X00639423Y00686542D01*
X00639492Y00681544D02*
X00649488Y00681682D01*
X00639584Y00674880D01*
X00649580Y00675018D01*
X00680132Y00692557D02*
X00681807Y00694213D01*
X00681827Y00697545D01*
X00680171Y00699221D01*
X00673506Y00699260D01*
X00671830Y00697604D01*
X00671811Y00694272D01*
X00673467Y00692596D01*
X00671782Y00689273D02*
X00671762Y00685941D01*
X00671772Y00687607D01*
X00681768Y00687549D01*
X00680112Y00689225D01*
X00871070Y00709084D02*
X00869404Y00710750D01*
X00866072D01*
X00864406Y00709084D01*
Y00702420D01*
X00866072Y00700754D01*
X00869404D01*
X00871070Y00702420D01*
X00879401Y00710750D02*
X00876069D01*
X00874403Y00709084D01*
Y00702420D01*
X00876069Y00700754D01*
X00879401D01*
X00881067Y00702420D01*
Y00709084D01*
X00879401Y00710750D01*
X00884399D02*
Y00702420D01*
X00886066Y00700754D01*
X00889398D01*
X00891064Y00702420D01*
Y00710750D01*
X00894396D02*
X00901061D01*
X00897729D01*
Y00700754D01*
X00734504Y00753101D02*
X00732838Y00754767D01*
X00729506D01*
X00727840Y00753101D01*
Y00746436D01*
X00729506Y00744770D01*
X00732838D01*
X00734504Y00746436D01*
X00737837Y00744770D02*
X00741169D01*
X00739503D01*
Y00754767D01*
X00737837Y00753101D01*
X00746167Y00744770D02*
X00749500D01*
X00747834D01*
Y00754767D01*
X00746167Y00753101D01*
X00841505Y00752701D02*
X00839838Y00754367D01*
X00836506D01*
X00834840Y00752701D01*
Y00746036D01*
X00836506Y00744370D01*
X00839838D01*
X00841505Y00746036D01*
X00851501Y00744370D02*
X00844837D01*
X00851501Y00751034D01*
Y00752701D01*
X00849835Y00754367D01*
X00846503D01*
X00844837Y00752701D01*
X00822452Y00837021D02*
Y00827024D01*
X00829117D01*
X00839113D02*
X00832449D01*
X00839113Y00833689D01*
Y00835355D01*
X00837447Y00837021D01*
X00834115D01*
X00832449Y00835355D01*
X00827840Y00592470D02*
X00837836Y00592626D01*
X00837914Y00587628D01*
X00836274Y00585936D01*
X00832942Y00585884D01*
X00831250Y00587524D01*
X00831172Y00592522D01*
X00831224Y00589190D02*
X00827944Y00585806D01*
X00838070Y00577633D02*
X00838018Y00580965D01*
X00836326Y00582605D01*
X00829662Y00582500D01*
X00828022Y00580808D01*
X00828074Y00577477D01*
X00829766Y00575837D01*
X00836430Y00575941D01*
X00838070Y00577633D01*
X00838148Y00572635D02*
X00828152Y00572479D01*
X00831484Y00572531D01*
X00838252Y00565971D01*
X00833176Y00570891D01*
X00828256Y00565815D01*
X00828308Y00562483D02*
X00828361Y00559151D01*
X00828335Y00560817D01*
X00838330Y00560974D01*
X00836638Y00562613D01*
X00800240Y00594670D02*
X00810237Y00594658D01*
X00810231Y00589660D01*
X00808563Y00587995D01*
X00805230Y00587999D01*
X00803566Y00589668D01*
X00803572Y00594666D01*
X00803568Y00591334D02*
X00800232Y00588005D01*
X00810219Y00579663D02*
X00810223Y00582995D01*
X00808559Y00584663D01*
X00801894Y00584671D01*
X00800226Y00583007D01*
X00800222Y00579675D01*
X00801886Y00578007D01*
X00808551Y00577999D01*
X00810219Y00579663D01*
X00810213Y00574664D02*
X00800216Y00574677D01*
X00803548Y00574673D01*
X00810205Y00568000D01*
X00805212Y00573004D01*
X00800208Y00568012D01*
X00800196Y00558015D02*
X00800204Y00564680D01*
X00806860Y00558007D01*
X00808527Y00558005D01*
X00810195Y00559669D01*
X00810199Y00563002D01*
X00808534Y00564670D01*
X00769140Y00592670D02*
X00779137Y00592652D01*
X00779128Y00587654D01*
X00777459Y00585990D01*
X00774126Y00585997D01*
X00772463Y00587666D01*
X00772472Y00592664D01*
X00772466Y00589332D02*
X00769128Y00586006D01*
X00779110Y00577657D02*
X00779116Y00580989D01*
X00777453Y00582658D01*
X00770788Y00582670D01*
X00769119Y00581007D01*
X00769113Y00577675D01*
X00770776Y00576006D01*
X00777441Y00575994D01*
X00779110Y00577657D01*
X00779101Y00572659D02*
X00769104Y00572677D01*
X00772436Y00572671D01*
X00779089Y00565994D01*
X00774099Y00571001D01*
X00769092Y00566012D01*
X00777417Y00562665D02*
X00779080Y00560996D01*
X00779074Y00557663D01*
X00777405Y00556000D01*
X00775739Y00556003D01*
X00774075Y00557672D01*
X00774079Y00559338D01*
X00774075Y00557672D01*
X00772406Y00556009D01*
X00770740Y00556012D01*
X00769077Y00557681D01*
X00769083Y00561014D01*
X00770752Y00562677D01*
X00846240Y00724670D02*
X00856237Y00724654D01*
X00856229Y00719656D01*
X00854560Y00717992D01*
X00851228Y00717998D01*
X00849564Y00719666D01*
X00849572Y00724665D01*
X00849567Y00721332D02*
X00846230Y00718006D01*
X00856213Y00709659D02*
X00856219Y00712991D01*
X00854555Y00714660D01*
X00847890Y00714671D01*
X00846222Y00713007D01*
X00846217Y00709675D01*
X00847880Y00708006D01*
X00854545Y00707996D01*
X00856213Y00709659D01*
X00856206Y00704661D02*
X00847875Y00704674D01*
X00846206Y00703010D01*
X00846201Y00699678D01*
X00847865Y00698009D01*
X00856195Y00697996D01*
X00856190Y00694664D02*
X00856180Y00688000D01*
X00856185Y00691332D01*
X00846188Y00691348D01*
X00846178Y00684683D02*
X00846172Y00681351D01*
X00846175Y00683017D01*
X00856172Y00683001D01*
X00854508Y00684670D01*
X00818040Y00643470D02*
Y00653467D01*
X00823038D01*
X00824705Y00651801D01*
Y00648468D01*
X00823038Y00646802D01*
X00818040D01*
X00821372D02*
X00824705Y00643470D01*
X00833035Y00653467D02*
X00829703D01*
X00828037Y00651801D01*
Y00645136D01*
X00829703Y00643470D01*
X00833035D01*
X00834701Y00645136D01*
Y00651801D01*
X00833035Y00653467D01*
X00838034D02*
Y00645136D01*
X00839700Y00643470D01*
X00843032D01*
X00844698Y00645136D01*
Y00653467D01*
X00848030D02*
X00854695D01*
X00851363D01*
Y00643470D01*
X00864692D02*
X00858027D01*
X00864692Y00650135D01*
Y00651801D01*
X00863026Y00653467D01*
X00859693D01*
X00858027Y00651801D01*
X00695840Y00591770D02*
X00705836Y00591692D01*
X00705797Y00586694D01*
X00704118Y00585041D01*
X00700786Y00585067D01*
X00699133Y00586746D01*
X00699172Y00591744D01*
X00699146Y00588412D02*
X00695788Y00585106D01*
X00705719Y00576697D02*
X00705745Y00580029D01*
X00704092Y00581708D01*
X00697428Y00581760D01*
X00695749Y00580107D01*
X00695723Y00576775D01*
X00697376Y00575096D01*
X00704040Y00575044D01*
X00705719Y00576697D01*
X00705680Y00571699D02*
X00699016Y00571751D01*
X00695658Y00568445D01*
X00698964Y00565087D01*
X00705628Y00565035D01*
X00695605Y00561781D02*
X00695580Y00558448D01*
X00695592Y00560115D01*
X00705589Y00560036D01*
X00703936Y00561715D01*
X00729540Y00592870D02*
X00739537Y00592858D01*
X00739531Y00587860D01*
X00737863Y00586196D01*
X00734530Y00586200D01*
X00732866Y00587868D01*
X00732872Y00592866D01*
X00732868Y00589534D02*
X00729532Y00586205D01*
X00739519Y00577863D02*
X00739523Y00581195D01*
X00737859Y00582863D01*
X00731194Y00582871D01*
X00729526Y00581207D01*
X00729522Y00577875D01*
X00731186Y00576207D01*
X00737851Y00576199D01*
X00739519Y00577863D01*
X00739513Y00572865D02*
X00732849Y00572873D01*
X00729512Y00569544D01*
X00732841Y00566208D01*
X00739505Y00566200D01*
X00729497Y00556215D02*
X00729504Y00562880D01*
X00736161Y00556207D01*
X00737827Y00556205D01*
X00739495Y00557869D01*
X00739499Y00561202D01*
X00737835Y00562870D01*
X00921337Y00690970D02*
X00914672D01*
X00911340Y00687638D01*
X00914672Y00684305D01*
X00921337D01*
Y00675975D02*
Y00679307D01*
X00919671Y00680973D01*
X00913006D01*
X00911340Y00679307D01*
Y00675975D01*
X00913006Y00674309D01*
X00919671D01*
X00921337Y00675975D01*
Y00670976D02*
X00913006D01*
X00911340Y00669310D01*
Y00665978D01*
X00913006Y00664312D01*
X00921337D01*
Y00660980D02*
Y00654315D01*
Y00657647D01*
X00911340D01*
X00930338Y00686184D02*
X00930357Y00679520D01*
X00933680Y00682861D02*
X00927015Y00682842D01*
X00930394Y00666190D02*
X00930413Y00659526D01*
X00698563Y00522634D02*
X00698621Y00517636D01*
X00700306Y00515989D01*
X00701953Y00517675D01*
X00703638Y00516028D01*
X00705285Y00517713D01*
X00705227Y00522711D01*
X00708636Y00516086D02*
X00713634Y00516144D01*
X00715281Y00517829D01*
X00713596Y00519476D01*
X00710264Y00519437D01*
X00708578Y00521084D01*
X00710225Y00522769D01*
X00715223Y00522827D01*
X00718652Y00514536D02*
X00725316Y00514613D01*
X00728628Y00516317D02*
X00733626Y00516376D01*
X00735273Y00518061D01*
X00733588Y00519707D01*
X00730256Y00519669D01*
X00728570Y00521316D01*
X00730217Y00523001D01*
X00735215Y00523059D01*
X00743623Y00516491D02*
X00740291Y00516453D01*
X00738605Y00518099D01*
X00738567Y00521431D01*
X00740213Y00523117D01*
X00743545Y00523155D01*
X00745231Y00521509D01*
X00745250Y00519843D01*
X00738586Y00519765D01*
X00748621Y00516549D02*
X00748543Y00523213D01*
X00753541Y00523271D01*
X00755227Y00521624D01*
X00755285Y00516627D01*
X00758617Y00516665D02*
X00763615Y00516723D01*
X00765261Y00518408D01*
X00763576Y00520055D01*
X00760244Y00520016D01*
X00758559Y00521663D01*
X00760205Y00523349D01*
X00765203Y00523406D01*
X00768632Y00515115D02*
X00775296Y00515192D01*
X00778532Y00523561D02*
X00781941Y00516935D01*
X00785196Y00523638D01*
X00795269Y00517090D02*
X00788605Y00517013D01*
X00795192Y00523754D01*
X00795173Y00525420D01*
X00793487Y00527067D01*
X00790155Y00527028D01*
X00788508Y00525343D01*
X00798601Y00517128D02*
X00798582Y00518795D01*
X00800248Y00518814D01*
X00800267Y00517148D01*
X00798601Y00517128D01*
X00806835Y00525555D02*
X00808481Y00527240D01*
X00811813Y00527279D01*
X00813499Y00525632D01*
X00813576Y00518968D01*
X00811929Y00517283D01*
X00808597Y00517244D01*
X00806912Y00518891D01*
X00806835Y00525555D01*
X00816927Y00517341D02*
X00816908Y00519007D01*
X00818574Y00519026D01*
X00818593Y00517360D01*
X00816927Y00517341D01*
X00825257Y00517437D02*
X00828589Y00517476D01*
X00826923Y00517457D01*
X00826807Y00527453D01*
X00825161Y00525768D01*
X00930738Y00739484D02*
X00930757Y00732820D01*
X00934080Y00736161D02*
X00927415Y00736142D01*
X00930794Y00719491D02*
X00930813Y00712826D01*
X00931338Y00787284D02*
X00931357Y00780620D01*
X00934680Y00783961D02*
X00928015Y00783942D01*
X00931394Y00767290D02*
X00931413Y00760626D01*
X00598838Y00765684D02*
X00598857Y00759019D01*
X00602180Y00762361D02*
X00595515Y00762342D01*
X00598894Y00745691D02*
X00598913Y00739026D01*
X00920337Y00792070D02*
X00913672D01*
X00910340Y00788738D01*
X00913672Y00785406D01*
X00920337D01*
Y00782073D02*
X00910340D01*
Y00777075D01*
X00912006Y00775409D01*
X00913672D01*
X00915338Y00777075D01*
Y00782073D01*
Y00777075D01*
X00917004Y00775409D01*
X00918671D01*
X00920337Y00777075D01*
Y00782073D01*
X00910340Y00772076D02*
X00917004D01*
X00920337Y00768744D01*
X00917004Y00765412D01*
X00910340D01*
X00915338D01*
Y00772076D01*
X00920337Y00762080D02*
Y00755415D01*
Y00758747D01*
X00910340D01*
X00610343Y00739170D02*
X00617008D01*
X00620340Y00742502D01*
X00617008Y00745835D01*
X00610343D01*
Y00749167D02*
Y00752499D01*
Y00750833D01*
X00620340D01*
Y00749167D01*
Y00752499D01*
Y00757497D02*
X00610343D01*
X00620340Y00764162D01*
X00610343D01*
X00920937Y00743170D02*
X00914272D01*
X00910940Y00739838D01*
X00914272Y00736506D01*
X00920937D01*
Y00728175D02*
Y00731507D01*
X00919271Y00733173D01*
X00912606D01*
X00910940Y00731507D01*
Y00728175D01*
X00912606Y00726509D01*
X00919271D01*
X00920937Y00728175D01*
Y00723176D02*
X00912606D01*
X00910940Y00721510D01*
Y00718178D01*
X00912606Y00716512D01*
X00920937D01*
Y00713180D02*
Y00706515D01*
Y00709847D01*
X00910940D01*
D30*
X00950445Y00798070D02*
G03*
X00950445Y00798070I-00001905J00000000D01*
G01*
X00570445D02*
G03*
X00570445Y00798070I-00001905J00000000D01*
G01*
D31*
X00739540Y00718020D02*
G03*
X00739540Y00718020I-00001250J00000000D01*
G01*
D32*
X00941840Y00595630D02*
X00967240D01*
X00941840D02*
Y00803910D01*
X00967240Y00595630D02*
Y00803910D01*
X00941840D02*
X00967240D01*
X00561840Y00595630D02*
X00587240D01*
X00561840D02*
Y00803910D01*
X00587240Y00595630D02*
Y00803910D01*
X00561840D02*
X00587240D01*
X00680720Y00755650D02*
Y00758190D01*
Y00755650D02*
X00706120D01*
Y00758190D01*
X00680720Y00783590D02*
Y00786130D01*
X00706120D01*
Y00783590D02*
Y00786130D01*
X00779940Y00719520D02*
X00784290D01*
Y00715170D02*
Y00719520D01*
X00779940Y00680020D02*
X00784290D01*
Y00684370D01*
X00744790Y00680020D02*
X00749140D01*
X00744790D02*
Y00684370D01*
Y00719520D02*
X00749140D01*
X00744790Y00715170D02*
Y00719520D01*
X00843440Y00775370D02*
X00850440D01*
X00843440Y00815370D02*
X00850440D01*
X00971940Y00784370D02*
X00975272D01*
X00973606D01*
Y00794367D01*
X00971940Y00792701D01*
X00592940Y00784170D02*
X00596272D01*
X00594606D01*
Y00794167D01*
X00592940Y00792501D01*
M02*
