G04 Layer_Color=7318015*
%FSAX44Y44*%
%MOMM*%
G71*
G01*
G75*
%ADD10R,1.4500X1.3000*%
%ADD11R,1.4000X1.4000*%
%ADD12R,1.4000X1.4000*%
%ADD13R,0.8001X1.1999*%
%ADD14R,1.1500X1.3500*%
%ADD15R,1.3000X1.4500*%
%ADD16R,1.5240X1.1430*%
%ADD17R,1.4500X1.1500*%
%ADD18R,1.1500X1.4500*%
%ADD19R,1.0160X2.0320*%
%ADD23R,1.8000X4.5000*%
%ADD33R,0.8200X0.8200*%
%ADD34O,0.8000X0.2300*%
%ADD35O,0.2300X0.8000*%
%ADD36R,0.0000X0.0000*%
D10*
X00643840Y00715270D02*
D03*
Y00731270D02*
D03*
D11*
X00675840Y00731970D02*
D03*
Y00711970D02*
D03*
D12*
X00886340Y00747770D02*
D03*
X00866340D02*
D03*
X00754040Y00806770D02*
D03*
X00774040D02*
D03*
D13*
X00867201Y00724320D02*
D03*
X00885199D02*
D03*
D14*
X00779090Y00749070D02*
D03*
X00764590D02*
D03*
D15*
X00770040Y00832870D02*
D03*
X00754040D02*
D03*
D16*
X00671140Y00625930D02*
D03*
Y00605610D02*
D03*
D17*
X00832440Y00689320D02*
D03*
Y00706820D02*
D03*
X00734140Y00607420D02*
D03*
Y00624920D02*
D03*
X00703440Y00624520D02*
D03*
Y00607020D02*
D03*
X00774540Y00608620D02*
D03*
Y00626120D02*
D03*
X00834840Y00626620D02*
D03*
Y00609120D02*
D03*
X00805140Y00608720D02*
D03*
Y00626220D02*
D03*
D18*
X00832990Y00667870D02*
D03*
X00850490D02*
D03*
D19*
X00684530Y00770890D02*
D03*
X00702310D02*
D03*
D23*
X00863440Y00795370D02*
D03*
X00830440D02*
D03*
D33*
X00758940Y00694170D02*
D03*
X00770140D02*
D03*
Y00705370D02*
D03*
X00758940D02*
D03*
D34*
X00747290Y00709770D02*
D03*
Y00704770D02*
D03*
Y00699770D02*
D03*
Y00694770D02*
D03*
Y00689770D02*
D03*
X00781790D02*
D03*
Y00694770D02*
D03*
Y00699770D02*
D03*
Y00704770D02*
D03*
Y00709770D02*
D03*
D35*
X00754540Y00682520D02*
D03*
X00759540D02*
D03*
X00764540D02*
D03*
X00769540D02*
D03*
X00774540D02*
D03*
Y00717020D02*
D03*
X00769540D02*
D03*
X00764540D02*
D03*
X00759540D02*
D03*
X00754540D02*
D03*
D36*
X00764540Y00699770D02*
D03*
M02*
